<svg xmlns="http://www.w3.org/2000/svg" viewBox="0 0 120 120" fill="none">
  <defs>
    <linearGradient id="g" x1="24" y1="16" x2="96" y2="104" gradientUnits="userSpaceOnUse">
      <stop offset="0" stop-color="#6366F1"/>
      <stop offset="1" stop-color="#A78BFA"/>
    </linearGradient>
  </defs>
  <rect width="120" height="120" rx="24" fill="url(#g)"/>
  <path d="M60 28c-17.6 0-32 12.5-32 28 0 8.3 4.2 15.8 10.8 21l-2.5 8.3c-.4 1.2.8 2.4 2 1.9l8.6-4.3c3.7 1.2 7.8 2 12.1 2h1" stroke="#fff" stroke-width="5" stroke-linecap="round" stroke-linejoin="round" fill="none"/>
  <path d="M72 62c0 7.7-6.3 14-14 14m0 0c-2 0-3.9-.4-5.6-1.2l-5.4 2.7c-.6.3-1.3-.2-1.1-.9l1.6-5.3C42.7 67.9 40 63.1 40 57.7 40 50 46.3 44 54 44c6.6 0 12.2 4.6 13.6 10.8" stroke="#fff" stroke-width="4.5" stroke-linecap="round" stroke-linejoin="round" fill="none"/>
  <circle cx="49" cy="56" r="2.5" fill="#fff"/>
  <circle cx="58" cy="56" r="2.5" fill="#fff"/>
  <circle cx="67" cy="56" r="2.5" fill="#fff"/>
</svg>
